<!--?xml version="1.0" standalone="no"?-->

<svg xmlns="http://www.w3.org/2000/svg" width="300.000000pt" height="300.000000pt" viewBox="0 0 300.000000 300.000000" preserveAspectRatio="xMidYMid meet">
<g transform="translate(0.000000,300.000000) scale(0.100000,-0.100000)" fill="#0A0A0A" stroke="none">
<path style="position: relative;" d="M1668 2856 c-49 -13 -63 -21 -116 -70 -57 -52 -76 -100 -76 -191 0
-92 14 -127 77 -193 73 -75 191 -101 285 -63 130 53 196 171 170 310 -18 101
-88 177 -187 205 -67 19 -90 19 -153 2z" id="node1" class="node" stroke-width="20"></path>
<path style="position: relative;" d="M1038 2698 l-3 -113 -114 -3 c-75 -2 -118 1 -127 9 -8 7 -14 30 -14
55 0 32 -4 44 -15 44 -11 0 -15 -13 -15 -54 0 -82 7 -86 161 -86 l129 0 0
-297 c0 -280 -2 -299 -20 -323 -25 -32 -25 -67 0 -105 19 -29 20 -48 20 -712
l0 -683 -26 0 c-14 0 -56 -7 -95 -16 -92 -21 -139 -62 -139 -123 0 -23 -5 -50
-11 -60 -14 -22 -5 -67 16 -75 43 -16 69 38 41 84 -22 38 -20 64 6 93 28 30
84 52 157 62 l54 7 -6 -120 c-6 -101 -4 -121 8 -126 8 -3 22 -3 30 0 12 5 14
25 8 126 l-6 120 49 -7 c100 -15 174 -58 174 -101 0 -12 -7 -37 -14 -56 -23
-55 -2 -97 40 -81 14 5 15 17 9 82 -9 106 -12 113 -50 138 -35 23 -136 53
-179 53 l-26 0 0 680 0 680 63 0 c34 0 67 -4 73 -8 6 -4 14 -53 18 -109 11
-174 61 -266 145 -266 l41 0 0 -41 c0 -22 6 -49 14 -58 21 -28 64 -40 100 -28
29 9 40 23 146 174 8 11 48 68 89 125 l74 105 13 110 c8 61 19 173 26 250 l12
138 -32 29 c-40 36 -71 37 -111 4 -24 -21 -31 -35 -36 -83 -3 -31 -10 -93 -16
-137 -5 -44 -14 -117 -19 -162 -8 -78 -11 -85 -67 -162 -32 -44 -80 -112 -108
-151 -39 -55 -58 -73 -86 -82 -52 -15 -85 -4 -113 40 -28 43 -56 165 -56 247
l0 55 128 0 128 0 69 55 c41 32 72 50 76 44 7 -12 25 100 35 216 7 88 28 134
69 153 59 27 128 2 151 -54 15 -36 11 -104 -26 -404 -5 -41 -9 -82 -10 -92 0
-9 -52 -89 -115 -178 -69 -96 -115 -171 -115 -185 0 -13 15 -43 33 -67 33 -43
34 -45 26 -108 -5 -36 -15 -135 -23 -220 -16 -169 -19 -142 38 -385 14 -60 37
-159 51 -220 29 -126 45 -154 102 -174 60 -21 115 -3 149 49 30 45 29 62 -4
200 -11 47 -36 156 -56 243 l-36 158 15 142 c9 78 18 171 22 207 3 41 12 73
23 85 10 11 27 39 39 62 19 37 21 59 21 192 0 154 -37 533 -63 642 -23 97 -79
149 -160 149 -89 0 -148 -52 -171 -150 -4 -16 -42 -53 -106 -103 l-99 -78 -93
3 c-75 2 -93 6 -93 18 0 11 14 16 50 20 l50 5 0 235 0 235 -30 5 c-25 4 -31
10 -33 35 -3 27 1 32 30 40 32 10 33 11 36 73 2 50 0 62 -12 62 -11 0 -16 -13
-18 -46 -4 -57 -24 -75 -62 -55 -20 11 -31 11 -54 2 -16 -7 -51 -11 -78 -9
l-49 3 -3 113 c-2 103 -4 112 -22 112 -18 0 -20 -9 -22 -112z m145 -156 c3 -4
3 -19 0 -33 -4 -20 -13 -28 -34 -33 l-29 -6 2 -232 3 -233 50 -5 c36 -4 50 -9
50 -20 0 -18 -41 -24 -102 -15 l-43 6 0 290 0 289 49 0 c28 0 52 -3 54 -8z
m91 -17 c9 -36 1 -45 -40 -45 -31 0 -34 3 -34 28 0 36 6 42 41 42 20 0 28 -6
33 -25z m-49 -275 c0 -9 -7 -14 -17 -12 -25 4 -22 -13 5 -26 l22 -11 -24 -7
-23 -7 23 -13 24 -14 -22 -6 c-28 -8 -30 -24 -3 -24 15 0 20 -7 20 -26 0 -14
4 -23 10 -19 6 3 10 15 10 26 0 10 7 19 15 19 8 0 15 5 15 10 0 6 -7 10 -15
10 -20 0 -19 19 0 26 14 6 13 8 -2 19 -17 13 -17 14 1 21 18 7 18 8 1 20 -36
27 21 47 66 24 17 -10 19 -22 19 -115 0 -124 -1 -125 -111 -125 -102 0 -109 8
-109 126 0 72 4 96 16 109 21 20 79 17 79 -5z" id="node2" class="node" stroke-width="20"></path>
</g>
<g transform="translate(0.000000,300.000000) scale(0.100000,-0.100000)" fill="#A0A0A0" stroke="none">



<path style="position: relative;" d="M1146 2255 c-12 -13 -16 -37 -16 -109 0 -118 7 -126 109 -126 110 0
111 1 111 125 0 93 -2 105 -19 115 -45 23 -102 3 -66 -24 17 -12 17 -13 -1
-20 -18 -7 -18 -8 -1 -21 15 -11 16 -13 2 -19 -19 -7 -20 -26 0 -26 8 0 15 -4
15 -10 0 -5 -7 -10 -15 -10 -8 0 -15 -9 -15 -19 0 -11 -4 -23 -10 -26 -6 -4
-10 5 -10 19 0 19 -5 26 -20 26 -27 0 -25 16 3 24 l22 6 -24 14 -23 13 23 7
24 7 -22 11 c-27 13 -30 30 -5 26 10 -2 17 3 17 12 0 22 -58 25 -79 5z" id="node6" class="node" stroke-width="20"></path>
</g>
</svg>